<svg width="126" height="44" viewBox="0 0 126 44" fill="none" xmlns="http://www.w3.org/2000/svg">
<path d="M21.3879 20.4H27.6279V33H27.8679C27.9079 33 28.0779 32.94 28.3779 32.82C28.6779 32.68 29.0279 32.51 29.4279 32.31C29.8479 32.09 30.2879 31.87 30.7479 31.65C31.2079 31.41 31.6279 31.19 32.0079 30.99C32.4079 30.77 32.7279 30.6 32.9679 30.48C33.2079 30.34 33.3179 30.27 33.2979 30.27V20.4H37.3179L39.9279 15.78H23.9379L21.3879 20.4ZM55.6088 27.18L62.0588 20.19C61.9788 19.99 61.7888 19.65 61.4888 19.17C61.1888 18.67 60.8588 18.17 60.4988 17.67C60.1388 17.17 59.7688 16.73 59.3888 16.35C59.0288 15.97 58.7388 15.78 58.5188 15.78H43.0388L40.5188 20.01L41.4488 20.7V33H41.7188C41.7588 33 41.9188 32.94 42.1987 32.82C42.4988 32.68 42.8488 32.51 43.2488 32.31C43.6688 32.09 44.1088 31.87 44.5688 31.65C45.0288 31.41 45.4488 31.19 45.8288 30.99C46.2288 30.77 46.5488 30.6 46.7888 30.48C47.0288 30.34 47.1388 30.27 47.1188 30.27V20.49H53.4188C53.4788 20.49 53.5588 20.55 53.6588 20.67C53.7788 20.77 53.8588 20.87 53.8988 20.97L48.2588 26.28L63.1388 36.99H63.4388L55.6088 27.18ZM77.663 33L80.273 28.38H71.063V26.94H77.963L80.573 22.29H71.063V20.4H79.343L81.953 15.78H65.423L62.843 20.4H65.453V33H77.663ZM94.4098 22.71L100.8 15.78H105.27V30.27C105.29 30.27 105.18 30.34 104.94 30.48C104.7 30.6 104.38 30.77 103.98 30.99C103.6 31.19 103.18 31.41 102.72 31.65C102.26 31.87 101.82 32.09 101.4 32.31C101 32.51 100.65 32.68 100.35 32.82C100.07 32.94 99.9098 33 99.8698 33H99.6298V25.74L94.6198 30.78H94.3498L89.1598 25.74V30.27C89.1798 30.27 89.0698 30.34 88.8298 30.48C88.5898 30.6 88.2698 30.77 87.8698 30.99C87.4898 31.19 87.0698 31.41 86.6098 31.65C86.1498 31.87 85.7098 32.09 85.2898 32.31C84.8898 32.51 84.5398 32.68 84.2398 32.82C83.9598 32.94 83.7998 33 83.7598 33H83.4898V20.7L82.5598 20.01L85.0798 15.78H88.0198L94.4098 22.71ZM121.315 33L123.925 28.38H114.715V26.94H121.615L124.225 22.29H114.715V20.4H122.995L125.605 15.78H109.075L106.495 20.4H109.105V33H121.315Z" fill="white"/>
<path d="M37.5695 43.65L21.9195 24L34.4195 8.3H22.7695L17.6195 14.9L12.5195 8.3H0.819531L11.6195 22.35L0.469531 37H0.869531C0.936198 37 1.31953 36.9167 2.01953 36.75C2.75286 36.55 3.6362 36.3167 4.66953 36.05C5.70286 35.75 6.80286 35.4333 7.96953 35.1C9.16953 34.7667 10.2695 34.4667 11.2695 34.2C12.2695 33.9 13.0862 33.6667 13.7195 33.5C14.3529 33.3 14.6529 33.2 14.6195 33.2L17.5195 29.55L37.0695 43.65H37.5695Z" fill="#FE1132"/>
</svg>
