<svg width="287" height="301" viewBox="0 0 287 301" fill="none" xmlns="http://www.w3.org/2000/svg">
<path d="M284.106 299.447L177.923 159.524L262.734 47.7272H183.69L148.748 94.7244L114.145 47.7272H32.3867L108.038 147.774L32.3867 252.094H35.1007C35.553 252.094 38.1539 251.5 42.9033 250.314C47.8789 248.889 53.8722 247.228 60.8833 245.329C67.8944 243.193 75.3577 240.938 83.2735 238.564C91.4153 236.191 98.8787 234.054 105.664 232.156C112.449 230.019 117.99 228.358 122.287 227.171C126.584 225.747 128.619 225.035 128.393 225.035L148.069 199.044L280.714 299.447H284.106Z" stroke="#FE1132" stroke-width="2"/>
</svg>
